<?xml version="1.0" encoding="UTF-8"?>
<svg width="370px" height="330px" viewBox="0 0 370 330" version="1.1" xmlns="http://www.w3.org/2000/svg" xmlns:xlink="http://www.w3.org/1999/xlink">
    <!-- Generator: Sketch 50.2 (55047) - http://www.bohemiancoding.com/sketch -->
    <title>Shield</title>
    <desc>Created with Sketch.</desc>
    <defs></defs>
    <g id="Shield" stroke="none" stroke-width="1" fill="none" fill-rule="evenodd">
        <g transform="translate(0.000000, -1.000000)">
            <g id="GraphQL-Logo" stroke-width="1" fill-rule="evenodd" transform="translate(185.000000, 165.800000) rotate(-270.000000) translate(-185.000000, -165.800000) translate(20.000000, -19.000000)" fill="#E535AB">
                <rect id="Rectangle-path" fill-rule="nonzero" transform="translate(99.370449, 298.497163) rotate(-149.999272) translate(-99.370449, -298.497163) " x="12.1580816" y="290.671621" width="174.424734" height="15.6510842"></rect>
                <rect id="Rectangle-path" fill-rule="nonzero" transform="translate(230.592026, 71.194106) rotate(-149.999272) translate(-230.592026, -71.194106) " x="143.379659" y="63.3685636" width="174.424734" height="15.6510842"></rect>
                <rect id="Rectangle-path" fill-rule="nonzero" transform="translate(99.412311, 71.134517) rotate(-120.000728) translate(-99.412311, -71.134517) " x="91.5867693" y="-16.0778498" width="15.6510842" height="174.424734"></rect>
                <rect id="Rectangle-path" fill-rule="nonzero" transform="translate(230.591366, 298.410137) rotate(-120.000728) translate(-230.591366, -298.410137) " x="223.755802" y="222.558949" width="13.6711278" height="151.702377"></rect>
                <path d="M324.814286,277.105714 C315.762857,292.851429 295.585714,298.225714 279.84,289.174286 C264.094286,280.122857 258.72,259.945714 267.771429,244.2 C276.822857,228.454286 297,223.08 312.745714,232.131429 C328.585714,241.277143 333.96,261.36 324.814286,277.105714" id="Shape" fill-rule="nonzero"></path>
                <path d="M62.1342857,125.4 C53.0828571,141.145714 32.9057143,146.52 17.16,137.468571 C1.41428571,128.417143 -3.96,108.24 5.09142857,92.4942857 C14.1428571,76.7485714 34.32,71.3742857 50.0657143,80.4257143 C65.8114286,89.5714286 71.1857143,109.654286 62.1342857,125.4" id="Shape" fill-rule="nonzero"></path>
                <path d="M5.18571429,277.105714 C-3.86571429,261.36 1.50857143,241.277143 17.2542857,232.131429 C33,223.08 53.0828571,228.454286 62.2285714,244.2 C71.28,259.945714 65.9057143,280.028571 50.16,289.174286 C34.32,298.225714 14.2371429,292.851429 5.18571429,277.105714" id="Shape" fill-rule="nonzero"></path>
                <path d="M267.865714,125.4 C258.814286,109.654286 264.188571,89.5714286 279.934286,80.4257143 C295.68,71.3742857 315.762857,76.7485714 324.908571,92.4942857 C333.96,108.24 328.585714,128.322857 312.84,137.468571 C297.094286,146.52 276.917143,141.145714 267.865714,125.4" id="Shape" fill-rule="nonzero"></path>
                <path d="M165,369.411429 C146.802857,369.411429 132.094286,354.702857 132.094286,336.505714 C132.094286,318.308571 146.802857,303.6 165,303.6 C183.197143,303.6 197.905714,318.308571 197.905714,336.505714 C197.905714,354.608571 183.197143,369.411429 165,369.411429" id="Shape" fill-rule="nonzero"></path>
                <path d="M165,66 C146.802857,66 132.094286,51.2914286 132.094286,33.0942857 C132.094286,14.8971429 146.802857,0.188571429 165,0.188571429 C183.197143,0.188571429 197.905714,14.8971429 197.905714,33.0942857 C197.905714,51.2914286 183.197143,66 165,66" id="Shape" fill-rule="nonzero"></path>
            </g>
            <text id="⚡️" font-family="AppleColorEmoji, Apple Color Emoji" font-size="170" font-weight="normal" fill="#2D2D2D">
                <tspan x="100" y="236">⚡️</tspan>
            </text>
        </g>
    </g>
</svg>